<?xml version="1.0" encoding="utf-8"?>
<!-- Generator: Adobe Illustrator 18.0.0, SVG Export Plug-In . SVG Version: 6.00 Build 0)  -->
<!DOCTYPE svg PUBLIC "-//W3C//DTD SVG 1.1//EN" "http://www.w3.org/Graphics/SVG/1.1/DTD/svg11.dtd">
<svg version="1.1" id="Layer_1" xmlns="http://www.w3.org/2000/svg" xmlns:xlink="http://www.w3.org/1999/xlink" x="0px" y="0px"
	 viewBox="0 0 1190.6 841.9" enable-background="new 0 0 1190.6 841.9" xml:space="preserve">
<g>
	<path d="M950.4,0H240.1c-36.8,0-65.8,28.9-65.8,65.8v539.3c0,36.8,28.9,65.8,65.8,65.8h235.6c-4.5,61.8-22.4,106.2-52.8,127.6
		c-10.5,6.6-14.5,18.4-10.5,28.9s13.2,18.4,25,18.4h315.7c11.8,0,22.4-7.9,25-18.4s-1.3-22.4-10.5-28.9
		c-29.2-21.4-47.9-65.8-52.7-127.6h235.5c36.8,0,65.8-28.9,65.8-65.8V65.8C1016.2,28.9,987.3,0,950.4,0z M240.1,52.6h710.3
		c7.9,0,13.2,5.3,13.2,13.2v407.8H226.9V65.8C226.9,57.9,232.2,52.6,240.1,52.6z M695.2,793.2H495.3c16.6-27.7,29.5-66.7,33.2-122.3
		h133.6C665.8,725.8,678.7,765.6,695.2,793.2z M950.4,618.3H240.1c-7.9,0-13.2-5.3-13.2-13.2v-78.9h736.7v78.9
		C963.6,613,958.3,618.3,950.4,618.3z"/>
	<circle cx="595.3" cy="572.2" r="32.9"/>
</g>
</svg>
